<svg width="16" height="16" viewBox="0 0 16 16" fill="none" xmlns="http://www.w3.org/2000/svg">
<path fill-rule="evenodd" clip-rule="evenodd" d="M0 4.83955H16V13.883C16 14.7612 15.2881 15.4731 14.4099 15.4731H1.59006C0.711892 15.4731 0 14.7612 0 13.883V4.83955ZM3.01449 6.95963C3.01449 6.81327 3.13314 6.69462 3.2795 6.69462H4.86957C5.01592 6.69462 5.13458 6.81327 5.13458 6.95963V8.54969C5.13458 8.69605 5.01592 8.8147 4.86957 8.8147H3.2795C3.13314 8.8147 3.01449 8.69605 3.01449 8.54969V6.95963ZM3.2795 10.6035C3.13314 10.6035 3.01449 10.7222 3.01449 10.8685V12.4586C3.01449 12.605 3.13314 12.7236 3.2795 12.7236H4.86957C5.01592 12.7236 5.13458 12.605 5.13458 12.4586V10.8685C5.13458 10.7222 5.01592 10.6035 4.86957 10.6035H3.2795ZM6.9234 6.95963C6.9234 6.81327 7.04205 6.69462 7.18841 6.69462H8.77847C8.92483 6.69462 9.04348 6.81327 9.04348 6.95963V8.54969C9.04348 8.69605 8.92483 8.8147 8.77847 8.8147H7.18841C7.04205 8.8147 6.9234 8.69605 6.9234 8.54969V6.95963ZM7.18841 10.6035C7.04205 10.6035 6.9234 10.7222 6.9234 10.8685V12.4586C6.9234 12.605 7.04205 12.7236 7.18841 12.7236H8.77847C8.92483 12.7236 9.04348 12.605 9.04348 12.4586V10.8685C9.04348 10.7222 8.92483 10.6035 8.77847 10.6035H7.18841ZM10.8323 6.95963C10.8323 6.81327 10.9509 6.69462 11.0973 6.69462H12.6874C12.8337 6.69462 12.9524 6.81327 12.9524 6.95963V8.54969C12.9524 8.69605 12.8337 8.8147 12.6874 8.8147H11.0973C10.9509 8.8147 10.8323 8.69605 10.8323 8.54969V6.95963ZM11.0973 10.6035C10.9509 10.6035 10.8323 10.7222 10.8323 10.8685V12.4586C10.8323 12.605 10.9509 12.7236 11.0973 12.7236H12.6874C12.8337 12.7236 12.9524 12.605 12.9524 12.4586V10.8685C12.9524 10.7222 12.8337 10.6035 12.6874 10.6035H11.0973Z" fill="#8A8A8A"/>
<path d="M11.9255 0.500001L4.04141 0.5V1.99068C4.04141 2.28341 3.80411 2.52071 3.51139 2.52071C3.21866 2.52071 2.98137 2.28341 2.98137 1.99068V0.5L1.59006 0.5C0.711892 0.5 0 1.2119 0 2.09006V3.81263L16 3.81263V2.09006C16 1.2119 15.2881 0.500001 14.4099 0.500001L12.9855 0.500001V1.99068C12.9855 2.28341 12.7482 2.52071 12.4555 2.52071C12.1628 2.52071 11.9255 2.28341 11.9255 1.99068V0.500001Z" fill="#8A8A8A"/>
</svg>
