<?xml version="1.0" encoding="iso-8859-1"?>
<!-- Generator: Adobe Illustrator 16.0.0, SVG Export Plug-In . SVG Version: 6.00 Build 0)  -->
<!DOCTYPE svg PUBLIC "-//W3C//DTD SVG 1.1//EN" "http://www.w3.org/Graphics/SVG/1.1/DTD/svg11.dtd">
<svg version="1.1" id="Capa_1" xmlns="http://www.w3.org/2000/svg" xmlns:xlink="http://www.w3.org/1999/xlink" x="0px" y="0px"
	 width="409.941px" height="409.941px" viewBox="0 0 409.941 409.941" style="enable-background:new 0 0 409.941 409.941;"
	 xml:space="preserve">
<g>
	<g>
		<path d="M203.547,247.376l-0.831-0.096l-0.829,0.096l-0.024-0.191L42.027,228.486v121.453c0,2.822,2.3,5.128,5.128,5.128h315.63
			c2.828,0,5.135-2.306,5.135-5.128V227.958l-164.354,19.228L203.547,247.376z"/>
		<path d="M204.974,54.869c-22.266,0-41.001,15.228-46.456,35.797h92.891C245.968,70.091,227.245,54.869,204.974,54.869z
			 M197.458,73.235c2.417-0.615,4.939-0.934,7.521-0.934c2.576,0,5.092,0.324,7.518,0.934H197.458z"/>
		<path d="M362.792,115.262h-86.247h-25.124h-92.897h-25.124H47.155c-2.828,0-5.128,2.306-5.128,5.128v83.338l160.688,18.795
			l165.204-19.317V120.39C367.92,117.568,365.613,115.262,362.792,115.262z"/>
		<path d="M362.792,73.235h-72.785c-12.405-35.737-46.104-60.394-85.027-60.394s-72.637,24.662-85.034,60.394h-72.79
			C21.151,73.235,0,94.387,0,120.39v229.549c0,26,21.151,47.161,47.155,47.161h315.63c26.001,0,47.156-21.154,47.156-47.161V120.39
			C409.941,94.387,388.798,73.235,362.792,73.235z M392.515,349.939c0,16.393-13.342,29.724-29.729,29.724H47.155
			c-16.393,0-29.724-13.331-29.724-29.724V120.39c0-16.387,13.331-29.724,29.724-29.724h86.238
			c5.873-34.236,35.695-60.393,71.58-60.393s65.71,26.157,71.571,60.393h86.24c16.388,0,29.729,13.337,29.729,29.724V349.939z"/>
	</g>
</g>
<g>
</g>
<g>
</g>
<g>
</g>
<g>
</g>
<g>
</g>
<g>
</g>
<g>
</g>
<g>
</g>
<g>
</g>
<g>
</g>
<g>
</g>
<g>
</g>
<g>
</g>
<g>
</g>
<g>
</g>
</svg>
